<svg width="17" height="24" viewBox="0 0 17 24" fill="none" xmlns="http://www.w3.org/2000/svg">
<path d="M0.273163 20.8074V18.5074C0.256188 18.3486 0.302189 18.1894 0.401291 18.0641C0.500393 17.9389 0.644686 17.8574 0.803162 17.8374L7.59316 16.2674C7.77684 16.2396 7.94678 16.1537 8.07814 16.0224C8.2095 15.891 8.29536 15.7211 8.32316 15.5374C8.34474 15.345 8.31 15.1504 8.22316 14.9774L6.67316 11.7674C6.56379 11.5803 6.51816 11.3627 6.54316 11.1474C6.56487 10.9892 6.63525 10.8416 6.74454 10.7252C6.85383 10.6087 6.99663 10.5291 7.15316 10.4974L8.53316 10.1574L16.2332 8.3174C16.3234 8.28769 16.4196 8.28062 16.5132 8.2968C16.6069 8.31298 16.6951 8.35191 16.7701 8.41018C16.8452 8.46845 16.9048 8.54427 16.9437 8.63097C16.9826 8.71767 16.9996 8.81259 16.9932 8.9074V13.2274C16.9929 13.4795 16.9045 13.7236 16.7432 13.9174C16.5855 14.1147 16.3679 14.2551 16.1232 14.3174L13.8732 14.8474L9.81316 15.8474C9.69726 15.8747 9.5883 15.9258 9.49316 15.9974C9.39574 16.0674 9.31681 16.1601 9.26316 16.2674C9.20574 16.3722 9.17163 16.4882 9.16316 16.6074C9.13892 16.7262 9.13892 16.8486 9.16316 16.9674C9.26316 17.2174 9.38316 17.4574 9.50316 17.6974L10.9132 20.6374C10.9567 20.7163 10.9903 20.8003 11.0132 20.8874C11.0398 21.0265 11.0106 21.1705 10.9321 21.2883C10.8535 21.4062 10.7318 21.4884 10.5932 21.5174L9.03316 21.8874L1.03316 23.7374C0.940117 23.7477 0.846207 23.7477 0.753159 23.7374C0.616915 23.7298 0.488588 23.671 0.393974 23.5727C0.29936 23.4743 0.245481 23.3438 0.243164 23.2074C0.243164 23.0074 0.243164 22.7974 0.243164 22.5974C0.273164 21.9974 0.273163 21.4074 0.273163 20.8074Z" fill="white"/>
<path d="M16.9535 3.41735V5.72735C16.9705 5.88353 16.9255 6.04016 16.8283 6.16356C16.7311 6.28697 16.5893 6.36732 16.4335 6.38735L6.4335 8.78734C6.18063 8.83742 5.94702 8.95782 5.75951 9.13472C5.572 9.31161 5.43821 9.53782 5.3735 9.78734C5.35336 9.9065 5.35336 10.0282 5.3735 10.1473C5.3735 11.4373 5.3735 12.7373 5.3735 14.0373C5.39145 14.2447 5.34426 14.4525 5.2385 14.6317C5.13274 14.811 4.97368 14.9528 4.7835 15.0373C4.57974 15.115 4.36867 15.172 4.1535 15.2073L1.5435 15.8173C1.38098 15.863 1.20956 15.8668 1.04519 15.8283C0.880829 15.7898 0.728883 15.7104 0.603505 15.5973C0.505893 15.4992 0.429714 15.3819 0.379795 15.2528C0.329877 15.1237 0.307304 14.9856 0.313504 14.8473V11.9973C0.313504 11.6773 0.313504 11.3573 0.313504 10.9973C0.306249 10.7448 0.388612 10.4978 0.546017 10.3001C0.703422 10.1024 0.925712 9.96683 1.1735 9.91735C2.2435 9.68735 3.3035 9.42735 4.3735 9.17735C4.54463 9.15882 4.7037 9.08042 4.82264 8.956C4.94157 8.83158 5.01271 8.66913 5.0235 8.49734C5.01865 8.32034 4.96689 8.14779 4.8735 7.99735L3.1035 4.45735C3.04325 4.33623 3.01241 4.20261 3.0135 4.06735C3.01114 3.95037 3.04988 3.83628 3.12297 3.74492C3.19605 3.65356 3.29886 3.59072 3.4135 3.56735L5.1035 3.15735L16.1835 0.497345C16.5735 0.407345 16.8435 0.547345 16.9235 0.887345C16.9383 0.970023 16.9383 1.05467 16.9235 1.13735C16.9535 1.89735 16.9535 2.65735 16.9535 3.41735Z" fill="white"/>
</svg>
