<svg width="28" height="25" viewBox="0 0 28 25" fill="none" xmlns="http://www.w3.org/2000/svg">
<path d="M21.2529 7.39736C20.9853 7.25965 20.6888 7.1878 20.3879 7.1878C20.087 7.1878 19.7904 7.25965 19.5229 7.39736L15.5229 9.77736L12.7829 11.2874L8.78286 13.6574C8.51866 13.8 8.22312 13.8747 7.92286 13.8747C7.6226 13.8747 7.32706 13.8 7.06286 13.6574L3.96286 11.7874C3.7011 11.6316 3.48425 11.4106 3.33351 11.1459C3.18276 10.8812 3.10329 10.582 3.10286 10.2774V6.68736C3.10523 6.38315 3.18552 6.08463 3.33607 5.82028C3.48663 5.55594 3.70242 5.33459 3.96286 5.17736L7.06286 3.37736C7.32706 3.2347 7.6226 3.16 7.92286 3.16C8.22312 3.16 8.51866 3.2347 8.78286 3.37736L11.8729 5.24736C12.136 5.4016 12.3539 5.6223 12.5049 5.88732C12.6558 6.15234 12.7344 6.45238 12.7329 6.75736V9.12736L15.4729 7.54736V5.09736C15.4695 4.7922 15.3876 4.49304 15.2353 4.22861C15.0829 3.96418 14.8652 3.74336 14.6029 3.58736L8.87286 0.217361C8.60866 0.0746966 8.31312 0 8.01286 0C7.7126 0 7.41706 0.0746966 7.15286 0.217361L1.25286 3.66736C0.989587 3.80078 0.769258 4.00571 0.617146 4.25865C0.465033 4.51158 0.387297 4.80226 0.392857 5.09736V11.8574C0.395223 12.1616 0.475516 12.4601 0.626072 12.7244C0.776628 12.9888 0.992421 13.2101 1.25286 13.3674L7.08286 16.7474C7.34706 16.89 7.6426 16.9647 7.94286 16.9647C8.24312 16.9647 8.53866 16.89 8.80286 16.7474L12.8029 14.4474L15.5429 12.8674L19.5429 10.5674C19.8089 10.4247 20.106 10.35 20.4079 10.35C20.7097 10.35 21.0069 10.4247 21.2729 10.5674L24.3629 12.3574C24.624 12.5139 24.8403 12.735 24.9909 12.9996C25.1416 13.2641 25.2215 13.563 25.2229 13.8674V17.4674C25.2138 17.7836 25.1212 18.0918 24.9543 18.3605C24.7874 18.6293 24.5523 18.849 24.2729 18.9974L21.2729 20.7974C21.0053 20.9351 20.7088 21.0069 20.4079 21.0069C20.107 21.0069 19.8104 20.9351 19.5429 20.7974L16.4329 18.9974C16.1711 18.8416 15.9543 18.6206 15.8035 18.3559C15.6528 18.0912 15.5733 17.792 15.5729 17.4874V15.1874L12.8729 16.7474V19.1174C12.8723 19.4222 12.9514 19.7218 13.1022 19.9866C13.253 20.2515 13.4704 20.4724 13.7329 20.6274L19.5229 23.9974C19.7889 24.14 20.086 24.2147 20.3879 24.2147C20.6897 24.2147 20.9869 24.14 21.2529 23.9974L27.0729 20.6174C27.3346 20.4616 27.5515 20.2406 27.7022 19.9759C27.853 19.7112 27.9324 19.412 27.9329 19.1074V12.2874C27.9315 11.983 27.8516 11.6841 27.7009 11.4196C27.5503 11.155 27.3339 10.9339 27.0729 10.7774L21.2529 7.39736Z" fill="white"/>
</svg>
