<svg width="25" height="24" viewBox="0 0 25 24" fill="none" xmlns="http://www.w3.org/2000/svg">
<path d="M9.31331 0.547367C7.63331 0.607367 7.44331 0.627367 7.31331 0.737367C6.98331 1.03737 6.74331 0.807367 12.8333 6.18737C15.9333 8.93737 18.5733 11.2774 18.6833 11.3874C18.7933 11.4974 18.9433 11.7974 18.7633 11.9774C18.5833 12.1574 18.5533 12.0974 17.8633 12.0974C17.1733 12.0974 17.0833 12.0974 16.8633 11.9174L14.2633 9.82737L11.8733 7.91737H9.87331C7.93331 7.91737 7.87331 7.91737 7.72331 8.04737C7.42331 8.34737 7.21331 8.13737 13.4233 13.7174C19.6333 19.2974 19.4233 19.1174 19.1333 19.3874C19.0333 19.4774 18.8733 19.4974 18.3133 19.4974H17.6133L17.1233 19.0774C16.8633 18.8374 13.9033 16.2374 10.5533 13.2874L4.49331 7.90737H2.43331C1.6921 7.87614 0.949566 7.90624 0.21331 7.99737C0.169753 8.0168 0.130491 8.0447 0.097807 8.07944C0.065123 8.11417 0.039668 8.15506 0.0229206 8.19972C0.00617323 8.24438 -0.00153168 8.29192 0.000251793 8.33959C0.00203527 8.38725 0.0132719 8.43408 0.03331 8.47737C0.03331 8.54737 3.93331 12.0074 8.63331 16.1774L17.1733 23.7574H20.6833C22.6033 23.7574 24.2433 23.6974 24.3333 23.6674C24.4151 23.6242 24.4789 23.5533 24.5133 23.4674C24.5133 23.3874 24.5133 22.2374 24.5133 20.9174V18.5274L23.8733 17.6574C23.6146 17.3757 23.3866 17.0673 23.1933 16.7374C23.1933 16.4874 23.3533 16.3974 23.8833 16.3474C24.4133 16.2974 24.4233 16.2874 24.4833 16.1974C24.5983 14.7463 24.5983 13.2884 24.4833 11.8374C24.3933 11.7674 13.8733 2.08737 12.2833 0.697367C11.9733 0.417367 12.2933 0.437367 9.31331 0.547367Z" fill="white"/>
</svg>
