<?xml version="1.0" encoding="UTF-8"?>
<svg id="Layer_3" xmlns="http://www.w3.org/2000/svg" viewBox="0 0 795.369 1035.117">
  <defs>
    <style>
      .cls-1 {
        fill: #d83c36;
      }

      .cls-2 {
        fill: #fff;
      }

      .cls-3 {
        fill: #231c4b;
      }

      .cls-4 {
        fill: #231d4c;
      }
    </style>
  </defs>
  <g>
    <path class="cls-1" d="M262.985,0c-68.555,0-124.328,55.773-124.328,124.328v339.373h110v-91.751h28.657v91.751h110V124.328C387.314,55.773,331.541,0,262.985,0ZM248.657,271.95V124.328c0-7.767,6.562-14.328,14.328-14.328s14.329,6.562,14.329,14.328v147.622h-28.657Z"/>
    <path class="cls-1" d="M540.3,0c-68.555,0-124.328,55.773-124.328,124.328v339.373h110v-91.751h28.656v91.751h110V124.328c0-68.555-55.773-124.328-124.328-124.328ZM525.972,271.95V124.328c0-7.767,6.562-14.328,14.328-14.328s14.328,6.562,14.328,14.328v147.622h-28.656Z"/>
  </g>
  <path class="cls-2" d="M262.985,17.5c-58.905,0-106.828,47.923-106.828,106.828v324.373h75v-91.751h63.657v91.751h75V124.328c0-58.905-47.924-106.828-106.829-106.828ZM231.157,286.95V124.328c0-17.55,14.278-31.828,31.828-31.828s31.829,14.278,31.829,31.828v162.622h-63.657Z"/>
  <path class="cls-3" d="M262.985,32.5c-50.634,0-91.828,41.194-91.828,91.828v309.373h45v-91.751h93.657v91.751h45V124.328c0-50.634-41.194-91.828-91.829-91.828ZM216.157,301.95V124.328c0-25.821,21.007-46.828,46.828-46.828s46.829,21.007,46.829,46.828v177.622h-93.657Z"/>
  <path class="cls-2" d="M540.3,17.5c-58.905,0-106.828,47.923-106.828,106.828v324.373h75v-91.751h63.656v91.751h75V124.328c0-58.905-47.923-106.828-106.828-106.828ZM508.472,286.95V124.328c0-17.55,14.278-31.828,31.828-31.828s31.828,14.278,31.828,31.828v162.622h-63.656Z"/>
  <path class="cls-4" d="M540.3,32.5c-50.634,0-91.828,41.194-91.828,91.828v309.373h45v-91.751h93.656v91.751h45V124.328c0-50.634-41.194-91.828-91.828-91.828ZM493.472,301.95V124.328c0-25.821,21.007-46.828,46.828-46.828s46.828,21.007,46.828,46.828v177.622h-93.656Z"/>
  <g>
    <polygon class="cls-1" points="138.657 721.432 110 721.432 110 604.224 0 604.224 0 938.64 110 938.64 110 821.432 138.657 821.432 138.657 938.64 248.657 938.64 248.657 604.224 138.657 604.224 138.657 721.432"/>
    <path class="cls-1" d="M415.972,816.069c0,7.767-6.562,14.329-14.329,14.329s-14.328-6.562-14.328-14.329v-211.846h-110v211.846c0,68.555,55.773,124.329,124.328,124.329s124.329-55.773,124.329-124.329v-211.846h-110v211.846Z"/>
    <path class="cls-1" d="M795.369,712.829c0-59.885-48.721-108.605-108.605-108.605h-132.136v334.416h92.515v.004h39.621c59.885,0,108.605-48.72,108.605-108.605,0-21.568-6.321-41.688-17.207-58.605,10.885-16.917,17.207-37.037,17.207-58.605ZM686.764,704.224c4.584,0,8.605,4.021,8.605,8.605s-4.021,8.605-8.605,8.605h-22.136v-17.21h22.136ZM686.764,838.644h-22.136v-17.21h22.136c4.584,0,8.605,4.021,8.605,8.605s-4.021,8.605-8.605,8.605Z"/>
  </g>
  <polygon class="cls-2" points="156.157 619.224 156.157 736.432 92.5 736.432 92.5 619.224 17.5 619.224 17.5 923.64 92.5 923.64 92.5 806.432 156.157 806.432 156.157 923.64 231.157 923.64 231.157 619.224 156.157 619.224"/>
  <polygon class="cls-4" points="171.157 634.224 171.157 751.432 77.5 751.432 77.5 634.224 32.5 634.224 32.5 908.64 77.5 908.64 77.5 791.432 171.157 791.432 171.157 908.64 216.157 908.64 216.157 634.224 171.157 634.224"/>
  <path class="cls-2" d="M401.643,922.898c-58.905,0-106.828-47.923-106.828-106.828v-196.846h75v196.846c0,17.55,14.278,31.828,31.828,31.828s31.829-14.278,31.829-31.828v-196.846h75v196.846c0,58.905-47.924,106.828-106.829,106.828Z"/>
  <path class="cls-4" d="M401.643,907.898c-50.634,0-91.828-41.194-91.828-91.828v-181.846h45v181.846c0,25.821,21.007,46.828,46.828,46.828s46.829-21.007,46.829-46.828v-181.846h45v181.846c0,50.634-41.194,91.828-91.829,91.828Z"/>
  <path class="cls-2" d="M780.369,712.829c0-51.614-41.991-93.605-93.605-93.605h-114.636v304.416h74.015v.004h40.621c51.614,0,93.605-41.991,93.605-93.605,0-22.166-7.75-42.552-20.675-58.605,12.925-16.053,20.675-36.439,20.675-58.605ZM686.764,689.224c12.796,0,23.605,10.81,23.605,23.605s-10.81,23.605-23.605,23.605h-39.636v-47.21h39.636ZM686.764,853.644h-39.636v-47.21h39.636c12.796,0,23.605,10.81,23.605,23.605s-10.81,23.605-23.605,23.605Z"/>
  <path class="cls-3" d="M739.076,771.434c16.121-14.405,26.293-35.335,26.293-58.605,0-43.343-35.263-78.605-78.605-78.605h-99.636v274.416h39.922v.004h59.714c43.343,0,78.605-35.262,78.605-78.605,0-23.27-10.172-44.2-26.293-58.605ZM686.764,674.224c21.287,0,38.605,17.318,38.605,38.605s-17.318,38.605-38.605,38.605h-54.636v-77.21h54.636ZM686.764,868.644h-54.636v-77.21h54.636c21.287,0,38.605,17.318,38.605,38.605s-17.318,38.605-38.605,38.605Z"/>
  <g>
    <path class="cls-4" d="M62.445,518.095c-2.239,0-4.064.354-5.479,1.061-1.414.707-2.533,1.679-3.357,2.916-.825,1.237-1.399,2.695-1.723,4.374-.324,1.679-.486,3.521-.486,5.522s.162,3.858.486,5.566c.323,1.709.897,3.181,1.723,4.418.824,1.236,1.943,2.208,3.357,2.915s3.239,1.061,5.479,1.061h15.903c1.648,0,3.077-.117,4.285-.354,1.207-.234,2.223-.663,3.049-1.281.824-.618,1.502-1.458,2.032-2.518.529-1.061.941-2.415,1.236-4.064h21.294c-.473,3.946-1.37,7.319-2.695,10.116-1.325,2.799-2.915,5.155-4.771,7.068-1.855,1.915-3.888,3.433-6.097,4.551-2.209,1.119-4.462,1.987-6.76,2.606-2.297.618-4.536,1.016-6.715,1.192-2.18.177-4.152.266-5.92.266h-13.783c-1.886,0-4.02-.103-6.405-.31-2.386-.206-4.815-.677-7.289-1.414-2.475-.735-4.875-1.796-7.201-3.181-2.328-1.383-4.418-3.238-6.273-5.566-1.855-2.326-3.344-5.213-4.462-8.658-1.119-3.446-1.679-7.584-1.679-12.414s.56-8.968,1.679-12.414c1.118-3.446,2.606-6.331,4.462-8.659,1.855-2.326,3.945-4.182,6.273-5.566,2.326-1.383,4.727-2.444,7.201-3.181,2.474-.736,4.903-1.207,7.289-1.414,2.386-.206,4.52-.309,6.405-.309h13.783c1.768,0,3.74.088,5.92.265,2.179.177,4.418.574,6.715,1.193,2.298.618,4.551,1.488,6.76,2.606,2.209,1.12,4.241,2.637,6.097,4.55,1.855,1.915,3.445,4.271,4.771,7.068,1.325,2.798,2.223,6.171,2.695,10.117h-21.294c-.412-3.062-1.443-5.183-3.092-6.362-1.65-1.177-4.153-1.767-7.511-1.767h-15.903Z"/>
    <path class="cls-4" d="M162.551,500.424c1.885,0,4.021.104,6.406.309,2.386.207,4.815.678,7.289,1.414,2.475.737,4.889,1.797,7.245,3.181,2.355,1.385,4.447,3.24,6.273,5.566,1.825,2.328,3.298,5.213,4.418,8.659,1.118,3.446,1.679,7.584,1.679,12.414s-.561,8.968-1.679,12.414c-1.12,3.445-2.593,6.332-4.418,8.658-1.826,2.328-3.918,4.184-6.273,5.566-2.356,1.385-4.771,2.445-7.245,3.181-2.474.737-4.903,1.208-7.289,1.414-2.386.207-4.521.31-6.406.31h-13.694c-1.886,0-4.021-.103-6.406-.31-2.386-.206-4.815-.677-7.289-1.414-2.474-.735-4.89-1.796-7.245-3.181-2.356-1.383-4.448-3.238-6.273-5.566-1.826-2.326-3.299-5.213-4.417-8.658-1.12-3.446-1.679-7.584-1.679-12.414s.559-8.968,1.679-12.414c1.118-3.446,2.591-6.331,4.417-8.659,1.825-2.326,3.917-4.182,6.273-5.566,2.355-1.383,4.771-2.444,7.245-3.181,2.474-.736,4.903-1.207,7.289-1.414,2.386-.206,4.521-.309,6.406-.309h13.694ZM163.611,545.927c2.238,0,4.078-.354,5.522-1.061,1.442-.707,2.576-1.679,3.401-2.915.824-1.237,1.398-2.709,1.723-4.418.323-1.708.486-3.563.486-5.566s-.163-3.844-.486-5.522c-.324-1.679-.898-3.137-1.723-4.374-.825-1.237-1.959-2.209-3.401-2.916-1.444-.707-3.284-1.061-5.522-1.061h-15.815c-2.239,0-4.079.354-5.522,1.061-1.443.707-2.577,1.679-3.401,2.916-.825,1.237-1.399,2.695-1.723,4.374-.324,1.679-.486,3.521-.486,5.522s.162,3.858.486,5.566c.323,1.709.897,3.181,1.723,4.418.824,1.236,1.958,2.208,3.401,2.915s3.283,1.061,5.522,1.061h15.815Z"/>
    <path class="cls-4" d="M270.433,500.424h30.748v63.086h-20.322v-42.146l-16.346,42.146h-25.004l-16.346-42.146v42.146h-20.233v-63.086h30.659l18.466,44.266,18.378-44.266Z"/>
    <path class="cls-4" d="M377.518,500.424h30.748v63.086h-20.322v-42.146l-16.346,42.146h-25.004l-16.346-42.146v42.146h-20.233v-63.086h30.659l18.466,44.266,18.378-44.266Z"/>
    <path class="cls-4" d="M476.299,500.424h20.233v31.543c0,4.83-.561,8.968-1.679,12.414-1.12,3.445-2.593,6.332-4.418,8.658-1.826,2.328-3.918,4.184-6.273,5.566-2.356,1.385-4.771,2.445-7.245,3.181-2.474.737-4.903,1.208-7.289,1.414-2.386.207-4.521.31-6.406.31h-13.694c-1.886,0-4.021-.103-6.406-.31-2.386-.206-4.815-.677-7.289-1.414-2.474-.735-4.89-1.796-7.245-3.181-2.356-1.383-4.448-3.238-6.273-5.566-1.826-2.326-3.299-5.213-4.417-8.658-1.12-3.446-1.679-7.584-1.679-12.414v-31.543h20.232v31.543c0,2.003.206,3.858.619,5.566.411,1.709,1.089,3.181,2.032,4.418.941,1.236,2.178,2.208,3.711,2.915,1.53.707,3.415,1.061,5.654,1.061h16.699c2.238,0,4.078-.354,5.522-1.061,1.442-.707,2.576-1.679,3.401-2.915.824-1.237,1.398-2.709,1.723-4.418.323-1.708.486-3.563.486-5.566v-31.543Z"/>
    <path class="cls-4" d="M565.447,500.424h20.233v63.086h-28.185l-31.896-41.439v41.439h-20.233v-63.086h28.273l31.808,41.438v-41.438Z"/>
    <path class="cls-4" d="M594.516,500.424h20.232v63.086h-20.232v-63.086Z"/>
    <path class="cls-4" d="M621.817,500.424h63.527v17.671h-21.912v45.415h-20.321v-45.415h-21.294v-17.671Z"/>
    <path class="cls-4" d="M769.723,500.512l-30.305,37.904v25.182h-20.234v-25.182l-30.306-37.904h24.916l15.462,20.94,15.463-20.94h25.004Z"/>
  </g>
  <g>
    <path class="cls-4" d="M92.705,1002.426c0,4.83-.561,8.968-1.679,12.414-1.12,3.445-2.606,6.332-4.462,8.658-1.855,2.328-3.947,4.184-6.273,5.566-2.328,1.385-4.728,2.445-7.201,3.181-2.474.737-4.903,1.208-7.289,1.414-2.386.207-4.521.31-6.406.31H12.302v-63.086h47.093c1.885,0,4.021.104,6.406.309,2.386.207,4.815.678,7.289,1.414,2.474.737,4.873,1.797,7.201,3.181,2.326,1.385,4.418,3.24,6.273,5.566,1.855,2.328,3.342,5.213,4.462,8.659,1.118,3.446,1.679,7.584,1.679,12.414ZM60.455,1016.386c2.238,0,4.064-.354,5.479-1.061,1.413-.707,2.531-1.679,3.357-2.915.824-1.237,1.398-2.709,1.723-4.418.323-1.708.486-3.563.486-5.566s-.163-3.844-.486-5.522c-.324-1.679-.898-3.137-1.723-4.374-.826-1.237-1.944-2.209-3.357-2.916s-3.24-1.061-5.479-1.061h-27.832v27.832h27.832Z"/>
    <path class="cls-4" d="M168.425,970.883v17.406h-48.418v6.097h48.418v16.522h-48.418v5.655h48.418v17.406h-68.651v-63.086h68.651Z"/>
    <path class="cls-4" d="M234.428,970.883h22.266l-31.72,63.086h-20.321l-31.808-63.086h22.265l19.703,41.703,19.615-41.703Z"/>
    <path class="cls-4" d="M287.176,988.554c-2.239,0-4.064.354-5.478,1.061-1.414.707-2.534,1.679-3.357,2.916-.826,1.237-1.4,2.695-1.724,4.374-.324,1.679-.485,3.521-.485,5.522s.161,3.858.485,5.566c.323,1.709.897,3.181,1.724,4.418.823,1.236,1.943,2.208,3.357,2.915,1.413.707,3.238,1.061,5.478,1.061h15.904c1.648,0,3.077-.117,4.285-.354,1.206-.234,2.223-.663,3.048-1.281.824-.618,1.502-1.458,2.032-2.518.53-1.061.941-2.415,1.237-4.064h21.293c-.472,3.946-1.369,7.319-2.694,10.116-1.325,2.799-2.916,5.155-4.771,7.068-1.855,1.915-3.888,3.433-6.097,4.551-2.209,1.119-4.462,1.987-6.759,2.606-2.297.618-4.536,1.016-6.715,1.192-2.18.177-4.153.266-5.92.266h-13.783c-1.886,0-4.021-.103-6.406-.31-2.386-.206-4.815-.677-7.289-1.414-2.474-.735-4.875-1.796-7.201-3.181-2.327-1.383-4.417-3.238-6.272-5.566-1.855-2.326-3.344-5.213-4.462-8.658-1.12-3.446-1.679-7.584-1.679-12.414s.559-8.968,1.679-12.414c1.118-3.446,2.606-6.331,4.462-8.659,1.855-2.326,3.945-4.182,6.272-5.566,2.326-1.383,4.728-2.444,7.201-3.181,2.474-.736,4.903-1.207,7.289-1.414,2.386-.206,4.521-.309,6.406-.309h13.783c1.767,0,3.74.088,5.92.265,2.179.177,4.418.574,6.715,1.193,2.297.618,4.55,1.488,6.759,2.606,2.209,1.12,4.241,2.637,6.097,4.55,1.855,1.915,3.446,4.271,4.771,7.068,1.325,2.798,2.223,6.171,2.694,10.117h-21.293c-.413-3.062-1.444-5.183-3.093-6.362-1.649-1.177-4.152-1.767-7.51-1.767h-15.904Z"/>
    <path class="cls-4" d="M387.282,970.883c1.885,0,4.021.104,6.405.309,2.386.207,4.815.678,7.29,1.414,2.474.737,4.889,1.797,7.245,3.181,2.354,1.385,4.446,3.24,6.272,5.566,1.825,2.328,3.299,5.213,4.418,8.659,1.118,3.446,1.679,7.584,1.679,12.414s-.561,8.968-1.679,12.414c-1.119,3.445-2.593,6.332-4.418,8.658-1.826,2.328-3.918,4.184-6.272,5.566-2.356,1.385-4.771,2.445-7.245,3.181-2.475.737-4.904,1.208-7.29,1.414-2.385.207-4.521.31-6.405.31h-13.695c-1.886,0-4.02-.103-6.405-.31-2.386-.206-4.815-.677-7.289-1.414-2.475-.735-4.891-1.796-7.245-3.181-2.357-1.383-4.448-3.238-6.273-5.566-1.826-2.326-3.3-5.213-4.418-8.658-1.119-3.446-1.679-7.584-1.679-12.414s.56-8.968,1.679-12.414c1.118-3.446,2.592-6.331,4.418-8.659,1.825-2.326,3.916-4.182,6.273-5.566,2.354-1.383,4.771-2.444,7.245-3.181,2.474-.736,4.903-1.207,7.289-1.414,2.386-.206,4.52-.309,6.405-.309h13.695ZM388.343,1016.386c2.237,0,4.078-.354,5.521-1.061s2.576-1.679,3.402-2.915c.824-1.237,1.398-2.709,1.723-4.418.323-1.708.486-3.563.486-5.566s-.163-3.844-.486-5.522c-.324-1.679-.898-3.137-1.723-4.374-.826-1.237-1.959-2.209-3.402-2.916-1.443-.707-3.284-1.061-5.521-1.061h-15.815c-2.239,0-4.08.354-5.522,1.061-1.444.707-2.577,1.679-3.401,2.916-.826,1.237-1.4,2.695-1.724,4.374-.324,1.679-.485,3.521-.485,5.522s.161,3.858.485,5.566c.323,1.709.897,3.181,1.724,4.418.824,1.236,1.957,2.208,3.401,2.915,1.442.707,3.283,1.061,5.522,1.061h15.815Z"/>
    <path class="cls-4" d="M487.741,970.883h20.233v63.086h-28.185l-31.896-41.439v41.439h-20.233v-63.086h28.273l31.808,41.438v-41.438Z"/>
    <path class="cls-4" d="M570.176,991.47c0,1.12.721,1.886,2.165,2.297,1.442.413,3.357.678,5.742.795,2.386.119,5.109.177,8.173.177s6.17.132,9.322.397c3.15.265,6.258.751,9.321,1.458,3.062.707,5.787,1.826,8.173,3.357,2.386,1.532,4.299,3.564,5.743,6.097,1.442,2.532,2.164,5.772,2.164,9.719,0,1.179-.104,2.474-.309,3.887-.207,1.414-.663,2.843-1.37,4.286s-1.723,2.842-3.048,4.196c-1.325,1.355-3.093,2.549-5.302,3.578-2.209,1.031-4.934,1.855-8.173,2.475-3.24.618-7.127.928-11.662.928h-11.222c-4.536,0-8.409-.384-11.618-1.148-3.212-.766-5.92-1.752-8.129-2.96-2.209-1.207-3.976-2.606-5.302-4.197-1.325-1.591-2.341-3.194-3.048-4.815-.707-1.619-1.164-3.21-1.369-4.771-.207-1.56-.31-2.929-.31-4.108h20.233c.177.649.455,1.297.839,1.944.383.648.973,1.223,1.768,1.723.795.501,1.812.898,3.048,1.192,1.237.296,2.797.442,4.683.442h14.138c2.178,0,3.695-.206,4.55-.618.854-.412,1.281-1.09,1.281-2.032,0-1.178-.722-2.002-2.165-2.475-1.443-.471-3.357-.779-5.743-.928-2.385-.146-5.095-.205-8.128-.177-3.035.03-6.141-.088-9.322-.354-3.181-.265-6.288-.735-9.321-1.413-3.034-.677-5.743-1.768-8.128-3.27-2.386-1.502-4.301-3.503-5.743-6.008-1.444-2.503-2.165-5.728-2.165-9.675,0-1.825.279-3.857.84-6.097.559-2.238,1.855-4.343,3.887-6.317,2.032-1.973,5.021-3.636,8.969-4.992,3.945-1.354,9.306-2.032,16.08-2.032h11.31c4.535,0,8.407.384,11.619,1.149,3.209.766,5.92,1.767,8.128,3.004,2.209,1.237,3.977,2.637,5.302,4.197,1.325,1.562,2.342,3.167,3.048,4.815.707,1.65,1.163,3.24,1.37,4.771.205,1.533.309,2.916.309,4.153h-20.233c-.295-1.648-1.163-2.945-2.606-3.888-1.443-.941-4.02-1.414-7.73-1.414h-14.137c-2.239,0-3.786.192-4.639.574-.854.384-1.281,1.076-1.281,2.077Z"/>
    <path class="cls-4" d="M696.7,970.883v17.406h-48.419v6.097h48.419v16.522h-48.419v5.655h48.419v17.406h-68.651v-63.086h68.651Z"/>
    <path class="cls-4" d="M754.131,970.883l33.486,63.086h-22.266l-4.683-9.277h-33.486l-4.683,9.277h-22.266l33.574-63.086h20.322ZM752.275,1007.992l-8.306-16.522-8.306,16.522h16.611Z"/>
  </g>
</svg>